<?xml version="1.0" encoding="UTF-8"?>
<svg xmlns="http://www.w3.org/2000/svg" version="1.1" viewBox="0 0 861.4 1080">
  <defs>
    <style>
      .cls-1 {
        fill: #fff;
      }

      .cls-2 {
        fill: none;
        stroke: #fff;
        stroke-linecap: round;
        stroke-linejoin: round;
      }
    </style>
  </defs>
  <!-- Generator: Adobe Illustrator 28.7.1, SVG Export Plug-In . SVG Version: 1.2.0 Build 142)  -->
  <g>
    <g id="_Слой_1" data-name="Слой_1">
      <g>
        <polygon class="cls-1" points="453.7 0 484.3 -33.3 213.5 -282.3 -298.2 274.1 -27.4 523.2 0 493.4 453.7 0"/>
        <path class="cls-1" d="M896.5,744.7l16.7-74.4-51.8,29.5-.6.3h0c0,.1-.5,3.5-2.4,8.4-2.9,7.5-9,18.7-21.4,26.6-6.8,4.4-15.6,7.8-26.8,9.1v.4h-74.3v291.1c-1,4-3.7,12.3-10.1,20.6-7.4,9.4-19.7,18.8-40,21.2v1.6c0,0-2.9,80.5-2.9,80.5l53,3.4v337.6h367.9v-755.9h-207.3Z"/>
        <polygon class="cls-1" points="477.2 460.9 477.2 246.4 252.6 460.9 477.2 460.9"/>
        <path class="cls-1" d="M816.6,462h0s34.2,3.9,43.5,40.8c.5,2,1,4.2,1.3,6.4h80.3l1.4-47.2h150.8V-293.9h-367.9V462h90.6Z"/>
        <line class="cls-2" x1="816.6" y1="462" x2="816.6" y2="462"/>
        <path class="cls-1" d="M529.8,1077.5c-44.8-5.3-50.6-44.1-50.6-44.1h0c0,0-.2-.2-.2-.2v-289.4H-5.1v755.9h484.1v-336.6l53.7-3.5-2.8-80.5v-1.6Z"/>
      </g>
    </g>
  </g>
</svg>